
<svg width="20" height="18" viewBox="0 0 20 18" fill="none" xmlns="http://www.w3.org/2000/svg">
<path d="M19.87 16.29L10.87 0.710012C10.7828 0.556114 10.6563 0.428106 10.5035 0.339047C10.3506 0.249987 10.1769 0.203064 10 0.203064C9.82311 0.203064 9.64939 0.249987 9.49655 0.339047C9.34371 0.428106 9.21723 0.556114 9.13001 0.710012L0.130007 16.29C0.0422391 16.442 -0.00396729 16.6145 -0.00396729 16.79C-0.00396729 16.9655 0.0422391 17.138 0.130007 17.29C0.218112 17.4426 0.344976 17.5692 0.497753 17.657C0.650531 17.7448 0.823797 17.7907 1.00001 17.79H19C19.1762 17.7907 19.3495 17.7448 19.5023 17.657C19.655 17.5692 19.7819 17.4426 19.87 17.29C19.9578 17.138 20.004 16.9655 20.004 16.79C20.004 16.6145 19.9578 16.442 19.87 16.29ZM2.73001 15.79L10 3.21001L17.27 15.79H2.73001Z" fill="#130713"/>
</svg>
